<svg id="Capa_1" enable-background="new 0 0 512 512" height="512" viewBox="0 0 512 512" width="512" xmlns="http://www.w3.org/2000/svg"><g><g><path clip-rule="evenodd" d="m341.443 343.254c83.145-82.206 140.452-190.573 153.972-307.24 1.701-14.693-2.933-19.298-17.626-17.597-116.667 13.492-225.033 70.799-307.24 153.943-83.144 82.207-140.451 190.573-153.942 307.24-1.701 14.723 2.903 19.327 17.597 17.626 116.666-13.52 225.033-70.827 307.239-153.972z" fill="#bbec6a" fill-rule="evenodd"/></g><g><path clip-rule="evenodd" d="m381.74 97.017c-9.678 9.678-9.678 25.398 0 35.076s25.369 9.678 35.047 0 9.678-25.398 0-35.076-25.369-9.678-35.047 0z" fill="#f8f2f0" fill-rule="evenodd"/></g><g><path clip-rule="evenodd" d="m331.56 182.244c-22.553-22.583-57.923-20.852-82.089 0l-37.041 31.997-42.819 36.953c-1.261 1.085-2.464 2.2-3.607 3.314l29.797 63.524 63.524 29.797c1.114-1.144 2.2-2.346 3.285-3.607l36.983-42.819 31.967-37.071c20.881-24.165 22.582-59.506 0-82.088z" fill="#7ca2b1" fill-rule="evenodd"/></g><g><path clip-rule="evenodd" d="m320.474 319.117c-81.209 82.148-187.934 139.044-303.017 153.444-.293 2.346-.587 4.693-.851 7.039-1.701 14.723 2.903 19.327 17.597 17.626 116.667-13.52 225.033-70.827 307.24-153.972 83.145-82.206 140.452-190.573 153.972-307.24 1.701-14.693-2.933-19.298-17.626-17.597-1.408.147-2.815.323-4.223.499-14.958 113.998-71.619 219.667-153.092 300.201z" fill="#97da7b" fill-rule="evenodd"/></g><g><path clip-rule="evenodd" d="m274.986 276.797-36.983 42.819c-1.085 1.261-2.17 2.464-3.285 3.607l24.606 24.606c1.114-1.144 2.2-2.346 3.285-3.607l36.983-42.819z" fill="#647b98" fill-rule="evenodd"/></g><g><path clip-rule="evenodd" d="m306.983 239.727-31.997 37.071 24.606 24.606 31.967-37.071c20.881-24.166 22.583-59.506 0-82.089-4.311-4.341-9.121-7.772-14.224-10.353 10.852 21.497 6.482 48.333-10.352 67.836z" fill="#647b98" fill-rule="evenodd"/></g><g><path clip-rule="evenodd" d="m166.004 254.508c-22.7 21.937-20.94 46.133 1.701 68.774l11.409 11.409 11.409 11.409c22.671 22.671 46.837 24.401 68.803 1.73z" fill="#f8f2f0" fill-rule="evenodd"/></g><g><path clip-rule="evenodd" d="m170.725 326.303 8.388 8.388 11.409 11.409c22.671 22.671 46.837 24.401 68.803 1.73l-24.606-24.606c-21.204 20.382-64.111 2.961-63.994 3.079z" fill="#eee1dc" fill-rule="evenodd"/></g><g><path clip-rule="evenodd" d="m403.472 122.415c-6.657 6.657-16.189 8.74-24.606 6.218.821 1.232 1.789 2.376 2.874 3.461 9.678 9.678 25.369 9.678 35.047 0s9.678-25.398 0-35.076c-3.021-3.021-6.628-5.103-10.441-6.218 6.687 9.648 5.719 22.992-2.874 31.615z" fill="#eee1dc" fill-rule="evenodd"/></g><path d="m157.278 386.683c-1.105-4.122-5.344-6.571-9.463-5.463l-20.775 5.566 5.573-20.798c1.104-4.122-1.342-8.359-5.464-9.463-4.118-1.105-8.358 1.34-9.463 5.463l-7.882 29.416-29.415 7.882c-4.122 1.104-6.568 5.341-5.464 9.463.925 3.452 4.047 5.728 7.458 5.728.662 0 1.335-.086 2.005-.266l20.798-5.573-5.566 20.774c-1.104 4.122 1.342 8.359 5.464 9.463.67.18 1.342.266 2.005.266 3.411 0 6.533-2.277 7.458-5.728l7.876-29.392 29.391-7.875c4.122-1.104 6.568-5.341 5.464-9.463z" fill="#f8f2f0"/><g><path d="m388.955 398.492c-1.977 0-3.955-.755-5.463-2.263l-265.888-265.887c-3.018-3.018-3.018-7.909 0-10.928 3.017-3.016 7.909-3.016 10.927 0l265.887 265.887c3.018 3.018 3.018 7.909 0 10.928-1.509 1.509-3.486 2.263-5.463 2.263z" fill="#fec165"/></g><g><path clip-rule="evenodd" d="m378.103 405.928c12.464 14.547 14.899 23.873 16.16 34.607.645 5.308 1.496 6.745 4.458 9.708l59.946 59.946h10.441l41.792-41.792c1.466-1.496 1.466-3.93 0-5.396l-62.469-62.469c-2.962-2.962-4.399-3.813-9.708-4.458-10.734-1.261-20.06-3.695-34.607-16.16-1.29-1.085-3.138-1.173-4.341 0l-10.822 10.851-10.851 10.822c-1.172 1.203-1.084 3.051.001 4.341z" fill="#fb2a39" fill-rule="evenodd"/></g><g><path clip-rule="evenodd" d="m1.122 47.247c-1.496 1.466-1.496 3.901 0 5.396l62.469 62.469c2.933 2.933 4.37 3.813 9.708 4.429 10.734 1.261 20.031 3.695 34.607 16.16 1.261 1.114 3.138 1.202 4.311 0l10.851-10.822 10.822-10.851c1.202-1.173 1.114-3.05 0-4.311-12.464-14.576-14.899-23.873-16.16-34.607-.616-5.338-1.496-6.775-4.429-9.708l-62.468-62.469c-1.496-1.496-3.93-1.496-5.396 0z" fill="#fb2a39" fill-rule="evenodd"/></g><g><path clip-rule="evenodd" d="m34.35 19.444 62.469 62.469c2.933 2.933 3.813 4.37 4.429 9.708 1.261 10.734 3.695 20.031 16.16 34.607 1.026 1.173 1.173 2.874.235 4.047.088-.059.176-.147.264-.205l5.162-5.191 10.822-10.851c1.202-1.173 1.114-3.05 0-4.311-12.464-14.576-14.899-23.873-16.16-34.607-.616-5.338-1.496-6.775-4.429-9.708l-62.469-62.469c-1.496-1.496-3.93-1.496-5.396 0l-16.483 16.511c-1.496 1.467 3.901-1.495 5.396 0z" fill="#dd003a" fill-rule="evenodd"/></g><g><path clip-rule="evenodd" d="m438.724 396.074c-10.734-1.261-20.06-3.695-34.607-16.16-1.29-1.085-3.138-1.173-4.341 0l-10.822 10.851-3.666 3.637c-.088.088-.176.176-.235.264 1.202-.939 2.874-.792 4.077.235 14.547 12.464 23.873 14.899 34.607 16.16 5.308.645 6.745 1.496 9.708 4.428l62.469 62.498c1.466 1.466 1.466 3.901 0 5.396l14.987-14.987c1.466-1.496 1.466-3.93 0-5.396l-62.469-62.469c-2.962-2.961-4.399-3.812-9.708-4.457z" fill="#dd003a" fill-rule="evenodd"/></g></g></svg>