<svg height="512" viewBox="0 0 60 60" width="512" xmlns="http://www.w3.org/2000/svg"><g id="096---Kayaking" fill="none" fill-rule="evenodd"><g fill-rule="nonzero"><path id="Shape" d="m58.94 5.54c-1.3 8.22-5.3 24.82-17.14 36.63-5.8229762 5.6290206-12.7769113 9.9547773-20.4 12.69-1.89.71-3.74 1.31-5.5 1.82-3.4415285.9921482-6.94618267 1.7505433-10.49 2.27-1.1816011.2110984-2.39411839-.140088-3.28-.95-.92584383-.9270386-1.32733431-2.2553342-1.07-3.54.57275966-3.5826923 1.38118068-7.12371 2.42-10.6.53-1.78 1.15-3.64 1.88-5.55 2.80327105-7.6482147 7.1771444-14.6246108 12.84-20.48 11.84-11.82 28.27-15.6 36.39-16.78 1.2434582-.22572301 2.5184139.17433639 3.41 1.07.8310714.9301899 1.1789077 2.19572228.94 3.42z" fill="#f29c1f"/><path id="Shape" d="m3.69385355 3.80631219h7.78700005c1.3260824 0 2.597852.52678421 3.5355339 1.4644661s1.4644661 2.20945146 1.4644661 3.5355339v.562c0 1.32608241-.5267842 2.59785201-1.4644661 3.53553391s-2.2094515 1.4644661-3.5355339 1.4644661h-7.78700005c-1.1045695 0-2-.8954305-2-2v-6.56200001c0-1.10456949.8954305-2 2-2z" fill="#3b97d3" transform="matrix(.707 .707 -.707 .707 9.087 -3.764)"/><path id="Shape" d="m45.5191464 45.6322056h7.787c2.7614238 0 5 2.2385762 5 5v.562c0 2.7614237-2.2385762 5-5 5h-7.787c-1.1045695 0-2-.8954305-2-2v-6.562c0-1.1045695.8954305-2 2-2z" fill="#3b97d3" transform="matrix(-.707 -.707 .707 -.707 50.912 122.915)"/><path id="Shape" d="m15.9 56.67v.01c-3.4415285.9921482-6.94618267 1.7505433-10.49 2.27-1.1816011.2110984-2.39411839-.140088-3.28-.95l7.65-7.65z" fill="#e57e25"/><path id="Shape" d="m58.94 5.54c-1.3 8.22-5.3 24.82-17.14 36.63-5.8229762 5.6290206-12.7769113 9.9547773-20.4 12.69v-.01l-7.93-8.19 44.53-44.54c.8310714.9301899 1.1789077 2.19572228.94 3.42z" fill="#e57e25"/><path id="Shape" d="m34.29 40.05c-2.0310709 1.552099-4.3240321 2.7273686-6.77 3.47l-10.97-10.97c.7308616-2.4564493 1.8885351-4.7650263 3.42-6.82z" fill="#fac176"/><path id="Shape" d="m27.52 43.52c-3.41 1.01-6.58.77-8.76-.89-.2716961-.1979181-.5259571-.4187237-.76-.66-.2349845-.2387879-.4459937-.5000373-.63-.78-1.56-2.19-1.78-5.3-.82-8.64z" fill="#d25627"/><path id="Shape" d="m37.26 37.49c-.9242037.926818-1.9170219 1.7825805-2.97 2.56l-14.32-14.32c.8389378-1.1431414 1.7650328-2.2196851 2.77-3.22 6.62-6.61 15.25-8.62 19.26-4.48s1.89 12.85-4.74 19.46z" fill="#d25627"/><path id="Shape" d="m50.23 20.023c-.3374036.0001636-.6521401-.1698272-.8370122-.4520745-.184872-.2822474-.2149493-.6386899-.0799878-.9479255 1.5097169-3.6572808 2.6598078-7.4528486 3.434-11.333-3.833152.72273292-7.5849415 1.8248211-11.2 3.29-.3300916.1475824-.7141414.1054774-1.0044162-.1101183-.2902749-.2155957-.4415561-.57109683-.39565-.92975215.0459061-.35865531.2818483-.66459381.6170662-.80012955 4.2122893-1.70695728 8.6012237-2.94052755 13.086-3.678.3158828-.04527455.634616.06109338.86.287.2248299.22731839.3274099.54843836.276.864-.79773 4.5281142-2.0842537 8.9563445-3.837 13.207-.1584976.3664291-.5197613.6034715-.919.603z" fill="#fac176"/><path id="Shape" d="m18.76 42.63-6.7 6.68c-.3900375.3877236-1.0199625.3877236-1.41 0-.3877236-.3900375-.3877236-1.0199625 0-1.41l6.72-6.71c.1840063.2799627.3950155.5412121.63.78.2340429.2412763.4883039.4620819.76.66z" fill="#fac176"/><path id="Shape" d="m50.912 51.912c-.2651948-.0000566-.5195073-.1054506-.707-.293l-41.078-41.078c-.25995658-.2510745-.3642126-.62287789-.27269716-.97250732.09151544-.34962944.3645604-.6226744.71418984-.71418984.34962943-.09151544.72143282.01274058.97250732.27269716l41.078 41.078c.2859079.2859943.3714219.7160366.216678 1.0896546-.1547439.3736179-.5192821.6172591-.923678.6173454z" fill="#f0c419"/></g><path id="Shape" d="m13.47 46.66-3.69 3.69"/><path id="Shape" d="m21.4 54.85v.01c-1.89.71-3.74 1.31-5.5 1.82v-.01l-12.42-12.81c.53-1.78 1.15-3.64 1.88-5.55h.01l8.02 8.27z" fill="#d25627" fill-rule="nonzero"/></g></svg>