<?xml version="1.0" encoding="UTF-8" standalone="no"?>
<svg
   xmlns:dc="http://purl.org/dc/elements/1.1/"
   xmlns:cc="http://creativecommons.org/ns#"
   xmlns:rdf="http://www.w3.org/1999/02/22-rdf-syntax-ns#"
   xmlns:svg="http://www.w3.org/2000/svg"
   xmlns="http://www.w3.org/2000/svg"
   xmlns:sodipodi="http://sodipodi.sourceforge.net/DTD/sodipodi-0.dtd"
   xmlns:inkscape="http://www.inkscape.org/namespaces/inkscape"
   id="icons"
   enable-background="new 0 0 64 64"
   height="512"
   viewBox="0 0 93.75 64"
   width="750"
   version="1.1"
   sodipodi:docname="pond.svg"
   inkscape:version="0.92.4 (unknown)">
  <metadata
     id="metadata133">
    <rdf:RDF>
      <cc:Work
         rdf:about="">
        <dc:format>image/svg+xml</dc:format>
        <dc:type
           rdf:resource="http://purl.org/dc/dcmitype/StillImage" />
        <dc:title></dc:title>
      </cc:Work>
    </rdf:RDF>
  </metadata>
  <defs
     id="defs131" />
  <sodipodi:namedview
     pagecolor="#ffffff"
     bordercolor="#666666"
     borderopacity="1"
     objecttolerance="10"
     gridtolerance="10"
     guidetolerance="10"
     inkscape:pageopacity="0"
     inkscape:pageshadow="2"
     inkscape:window-width="1498"
     inkscape:window-height="480"
     id="namedview129"
     showgrid="false"
     inkscape:zoom="0.4609375"
     inkscape:cx="126.87946"
     inkscape:cy="250.4134"
     inkscape:window-x="0"
     inkscape:window-y="27"
     inkscape:window-maximized="0"
     inkscape:current-layer="g126" />
  <g
     id="g126">
    <g
       id="g4">
      <path
         d="m 30.003,32.995 c -0.553,0 -1,-0.447 -1,-1 v -2.99 c 0,-0.553 0.447,-1 1,-1 0.553,0 1,0.447 1,1 v 2.99 c 0,0.553 -0.447,1 -1,1 z"
         id="path2"
         inkscape:connector-curvature="0"
         style="fill:#965353" />
    </g>
    <g
       id="g8">
      <path
         d="m 42.004,32.995 c -0.553,0 -1,-0.447 -1,-1 v -2.99 c 0,-0.553 0.447,-1 1,-1 0.553,0 1,0.447 1,1 v 2.99 c 0,0.553 -0.447,1 -1,1 z"
         id="path6"
         inkscape:connector-curvature="0"
         style="fill:#965353" />
    </g>
    <g
       id="g12">
      <path
         d="m 54.005,32.995 c -0.553,0 -1,-0.447 -1,-1 v -2.99 c 0,-0.553 0.447,-1 1,-1 0.553,0 1,0.447 1,1 v 2.99 c 0,0.553 -0.447,1 -1,1 z"
         id="path10"
         inkscape:connector-curvature="0"
         style="fill:#965353" />
    </g>
    <g
       id="g20">
      <path
         d="m 54,18.004 4.011,7 H 55.29 52.72 49.999 Z"
         id="path18"
         inkscape:connector-curvature="0"
         style="fill:#a0d468" />
    </g>
    <g
       id="g24">
      <path
         d="m 55.29,25.004 2.721,5 H 54 49.999 l 2.721,-5 z"
         id="path22"
         inkscape:connector-curvature="0"
         style="fill:#8cc152" />
    </g>
    <g
       id="g28">
      <path
         d="m 43.29,27.004 2.711,3 H 42 37.999 l 2.721,-3 z"
         id="path26"
         inkscape:connector-curvature="0"
         style="fill:#8cc152" />
    </g>
    <g
       id="g32">
      <path
         d="m 42,22.004 4.001,5 H 43.29 40.72 37.999 Z"
         id="path30"
         inkscape:connector-curvature="0"
         style="fill:#a0d468" />
    </g>
    <g
       id="g36">
      <path
         d="m 31.29,24.004 2.711,6 H 30 25.999 l 2.721,-6 z"
         id="path34"
         inkscape:connector-curvature="0"
         style="fill:#8cc152" />
    </g>
    <g
       id="g40">
      <path
         d="m 30,16.004 4.001,8 H 31.29 28.72 25.999 Z"
         id="path38"
         inkscape:connector-curvature="0"
         style="fill:#a0d468" />
    </g>
    <g
       id="g44">
      <path
         d="m 27.5,43.003 3.5,7 h -1 -5 -1 z"
         id="path42"
         inkscape:connector-curvature="0"
         style="fill:#a0d468" />
    </g>
    <g
       id="g48">
      <path
         d="m 30,50.003 2,5 h -3 -3 -3 l 2,-5 z"
         id="path46"
         inkscape:connector-curvature="0"
         style="fill:#8cc152" />
    </g>
    <g
       id="g52">
      <path
         d="m 26,55.003 h 3 v 3 h -3 z"
         id="path50"
         inkscape:connector-curvature="0"
         style="fill:#965353" />
    </g>
    <g
       id="g56">
      <path
         d="m 27.5,43.003 -3.5,7 h -6 l -3.5,-7 -3.5,7 h -1 c -4.97,0 -9,-4.03 -9,-9 0,-4.97 4.03,-9 9,-9 h 44 c 39.953051,0 39.644068,-1.393729 39.644068,9 0,9.851356 -0.23339,9 -39.644068,9 H 31 Z"
         id="path54"
         inkscape:connector-curvature="0"
         style="fill:#5d9cec"
         sodipodi:nodetypes="cccccsssssscc" />
    </g>
    <g
       id="g60">
      <path
         d="m 13,55.003 h 3 v 3 h -3 z"
         id="path58"
         inkscape:connector-curvature="0"
         style="fill:#965353" />
    </g>
    <g
       id="g64">
      <path
         d="m 17,50.003 2,5 h -3 -3 -3 l 2,-5 z"
         id="path62"
         inkscape:connector-curvature="0"
         style="fill:#8cc152" />
    </g>
    <g
       id="g68">
      <path
         d="m 14.5,43.003 3.5,7 h -1 -5 -1 z"
         id="path66"
         inkscape:connector-curvature="0"
         style="fill:#a0d468" />
    </g>
    <g
       id="g72">
      <path
         d="M 28,38.003 H 11 c -0.553,0 -1,-0.447 -1,-1 0,-0.553 0.447,-1 1,-1 h 17 c 0.553,0 1,0.447 1,1 0,0.553 -0.447,1 -1,1 z"
         id="path70"
         inkscape:connector-curvature="0"
         style="fill:#87bcf4" />
    </g>
    <g
       id="g76">
      <path
         d="m 33,38.003 h -2 c -0.553,0 -1,-0.447 -1,-1 0,-0.553 0.447,-1 1,-1 h 2 c 0.553,0 1,0.447 1,1 0,0.553 -0.447,1 -1,1 z"
         id="path74"
         inkscape:connector-curvature="0"
         style="fill:#87bcf4" />
    </g>
    <g
       id="g80">
      <path
         d="m 26.001,42.001 h -3 c -0.553,0 -1,-0.447 -1,-1 0,-0.553 0.447,-1 1,-1 h 3 c 0.553,0 1,0.447 1,1 0,0.553 -0.447,1 -1,1 z"
         id="path78"
         inkscape:connector-curvature="0"
         style="fill:#87bcf4" />
    </g>
    <g
       id="g84">
      <path
         d="M 44.995,42.001 H 29.001 c -0.553,0 -1,-0.447 -1,-1 0,-0.553 0.447,-1 1,-1 h 15.994 c 0.553,0 1,0.447 1,1 0,0.553 -0.447,1 -1,1 z"
         id="path82"
         inkscape:connector-curvature="0"
         style="fill:#87bcf4" />
    </g>
    <g
       id="g88">
      <path
         d="m 38.998,46.003 h -2.995 c -0.553,0 -1,-0.447 -1,-1 0,-0.553 0.447,-1 1,-1 h 2.995 c 0.553,0 1,0.447 1,1 0,0.553 -0.447,1 -1,1 z"
         id="path86"
         inkscape:connector-curvature="0"
         style="fill:#87bcf4" />
    </g>
    <g
       id="g92">
      <path
         d="M 54.001,46.003 H 41.995 c -0.553,0 -1,-0.447 -1,-1 0,-0.553 0.447,-1 1,-1 h 12.006 c 0.553,0 1,0.447 1,1 0,0.553 -0.447,1 -1,1 z"
         id="path90"
         inkscape:connector-curvature="0"
         style="fill:#87bcf4" />
    </g>
    <path
       d="m 51.487525,37.610169 h -2.995 c -0.553,0 -1,-0.447 -1,-1 0,-0.553 0.447,-1 1,-1 h 2.995 c 0.553,0 1,0.447 1,1 0,0.553 -0.447,1 -1,1 z"
       id="path86-1"
       inkscape:connector-curvature="0"
       style="fill:#87bcf4;stroke-width:1" />
    <path
       d="m 66.490525,37.610169 h -12.006 c -0.553,0 -1,-0.447 -1,-1 0,-0.553 0.447,-1 1,-1 h 12.006 c 0.553,0 1,0.447 1,1 0,0.553 -0.447,1 -1,1 z"
       id="path90-2"
       inkscape:connector-curvature="0"
       style="fill:#87bcf4;stroke-width:1" />
    <path
       d="m 65.046847,42.762712 h -2.995 c -0.553,0 -1,-0.447 -1,-1 0,-0.553 0.447,-1 1,-1 h 2.995 c 0.553,0 1,0.447 1,1 0,0.553 -0.447,1 -1,1 z"
       id="path86-7"
       inkscape:connector-curvature="0"
       style="fill:#87bcf4;stroke-width:1" />
    <path
       d="m 80.049847,42.762712 h -12.006 c -0.553,0 -1,-0.447 -1,-1 0,-0.553 0.447,-1 1,-1 h 12.006 c 0.553,0 1,0.447 1,1 0,0.553 -0.447,1 -1,1 z"
       id="path90-0"
       inkscape:connector-curvature="0"
       style="fill:#87bcf4;stroke-width:1" />
  </g>
</svg>
