<?xml version="1.0" encoding="iso-8859-1"?>
<!-- Generator: Adobe Illustrator 19.0.0, SVG Export Plug-In . SVG Version: 6.00 Build 0)  -->
<svg version="1.1" id="Layer_1" xmlns="http://www.w3.org/2000/svg" xmlns:xlink="http://www.w3.org/1999/xlink" x="0px" y="0px"
	 viewBox="0 0 512 512" style="enable-background:new 0 0 512 512;" xml:space="preserve">
<path style="fill:#FDE265;" d="M478.276,43.511c1.07-5.739-4.122-10.931-9.861-9.861
	c-107.455,20.054-205.257,71.657-282.833,149.233S56.403,358.26,36.35,465.716c-1.07,5.739,4.122,10.931,9.861,9.861
	c107.455-20.054,205.257-71.657,282.833-149.233S458.224,150.965,478.276,43.511z"/>
<path style="fill:#FCAF27;" d="M203.516,200.816c75.152-75.152,169.286-125.93,272.789-147.261
	c0.688-3.338,1.345-6.687,1.972-10.044c1.07-5.739-4.122-10.931-9.861-9.861c-107.455,20.054-205.257,71.657-282.833,149.233
	S56.403,358.26,36.35,465.716c-1.07,5.739,4.122,10.931,9.861,9.861c3.357-0.627,6.706-1.284,10.044-1.972
	C77.586,370.101,128.364,275.967,203.516,200.816z"/>
<g>
	<path style="fill:#EC2620;" d="M261.752,119.438c-27.062,18.642-52.556,39.833-76.168,63.445s-44.801,49.107-63.445,76.168
		c1.081,33.121,14.253,65.921,39.534,91.203s58.082,38.454,91.203,39.534c27.062-18.642,52.556-39.833,76.168-63.445
		c23.612-23.612,44.801-49.107,63.445-76.168c-1.081-33.121-14.253-65.921-39.534-91.203
		C327.673,133.691,294.872,120.519,261.752,119.438z"/>
	<path style="fill:#EC2620;" d="M439.895,166.054c17.511-38.896,30.434-79.957,38.381-122.544c1.07-5.739-4.122-10.931-9.861-9.861
		c-42.587,7.947-83.648,20.87-122.544,38.381c19.836,9.622,38.435,22.654,54.902,39.122
		C417.241,127.62,430.273,146.218,439.895,166.054z"/>
	<path style="fill:#EC2620;" d="M74.731,343.171c-17.511,38.896-30.434,79.957-38.381,122.544c-1.07,5.739,4.122,10.931,9.861,9.861
		c42.587-7.947,83.648-20.87,122.544-38.381c-19.836-9.622-38.435-22.654-54.902-39.122
		C97.385,381.606,84.353,363.008,74.731,343.171z"/>
</g>
<g>
	<path style="fill:#C21C23;" d="M297.661,125.5c-11.691-3.641-23.779-5.666-35.91-6.062c-27.062,18.642-52.556,39.833-76.168,63.445
		s-44.801,49.107-63.445,76.168c0.396,12.132,2.421,24.218,6.062,35.91c21.344-33.803,46.539-65.369,75.314-94.146
		S263.858,146.844,297.661,125.5z"/>
	<path style="fill:#C21C23;" d="M478.276,43.511c1.07-5.739-4.122-10.931-9.861-9.861c-42.587,7.947-83.648,20.87-122.544,38.381
		c8.711,4.226,17.183,9.11,25.341,14.653c33.597-14.519,68.759-25.641,105.079-33.126C476.981,50.216,477.65,46.87,478.276,43.511z"
		/>
	<path style="fill:#C21C23;" d="M74.731,343.171c-17.511,38.896-30.434,79.957-38.381,122.544c-1.07,5.739,4.122,10.931,9.861,9.861
		c3.359-0.627,6.706-1.296,10.046-1.984c7.487-36.319,18.607-71.482,33.126-105.079C83.84,360.354,78.956,351.883,74.731,343.171z"
		/>
</g>
<circle style="fill:#54747B;" cx="257.314" cy="254.608" r="67.628"/>
<path style="fill:#3C6168;" d="M233.403,302.433c-26.411-26.411-26.411-69.23,0-95.641c10.152-10.152,22.729-16.384,35.865-18.732
	c-21.04-3.76-43.517,2.473-59.776,18.732c-26.411,26.411-26.411,69.23,0,95.641c16.259,16.259,38.735,22.493,59.775,18.732
	C256.132,318.818,243.554,312.585,233.403,302.433z"/>
<g>
	<path style="fill:#C21C23;" d="M340.999,215.246c-2.164,0-4.327-0.825-5.978-2.476l-35.865-35.865
		c-3.302-3.302-3.302-8.654,0-11.955c3.302-3.3,8.654-3.299,11.954,0l35.865,35.865C352.18,206.02,348.392,215.246,340.999,215.246z
		"/>
	<path style="fill:#C21C23;" d="M209.493,346.751c-2.163,0-4.327-0.825-5.978-2.476l-35.865-35.865
		c-3.302-3.302-3.302-8.653,0-11.955c3.301-3.3,8.653-3.3,11.954,0l35.865,35.865C220.675,337.526,216.886,346.751,209.493,346.751z
		"/>
</g>
<path style="fill:#234D55;" d="M387.506,395.958c-2.163,0-4.327-0.825-5.978-2.476L118.517,130.472
	c-3.302-3.302-3.302-8.653,0-11.955c3.301-3.3,8.653-3.3,11.954,0l263.013,263.011c3.302,3.302,3.302,8.653,0,11.955
	C391.833,395.133,389.669,395.958,387.506,395.958z"/>
<path style="fill:#FDD349;" d="M507.055,447.281l-59.776-59.776c-1.083-1.083-2.44-1.852-3.927-2.223l-47.819-11.955
	c-2.882-0.72-5.928,0.124-8.029,2.223l-11.955,11.955c-2.1,2.1-2.944,5.147-2.223,8.029l11.955,47.82
	c0.372,1.486,1.14,2.844,2.223,3.927l59.776,59.776c6.592,6.592,17.318,6.592,23.91,0l35.865-35.865
	C513.648,464.599,513.648,453.872,507.055,447.281z"/>
<path style="fill:#FCAF27;" d="M459.288,495.049l-59.776-59.776c-1.083-1.083-1.851-2.441-2.223-3.927l-11.955-47.82
	c-0.716-2.869,0.118-5.902,2.2-8.001c-0.008,0.008-0.019,0.015-0.027,0.024l-11.955,11.955c-2.1,2.1-2.944,5.147-2.223,8.029
	l11.955,47.82c0.372,1.486,1.14,2.844,2.223,3.927l59.776,59.776c6.592,6.592,17.318,6.592,23.91,0l12.007-12.007
	C476.606,501.641,465.879,501.641,459.288,495.049z"/>
<path style="fill:#FDD349;" d="M138.674,116.465l-11.956-47.82c-0.371-1.487-1.14-2.844-2.223-3.927L64.719,4.944
	c-6.592-6.592-17.318-6.592-23.91,0L4.944,40.809c-6.592,6.592-6.592,17.318,0,23.91l59.776,59.776
	c1.083,1.083,2.441,1.851,3.927,2.223l47.82,11.955c2.882,0.72,5.928-0.124,8.029-2.223l11.955-11.955
	C138.55,122.393,139.394,119.346,138.674,116.465z"/>
<path style="fill:#FCAF27;" d="M128.473,126.666l-47.82-11.955c-1.486-0.372-2.844-1.14-3.927-2.223L16.95,52.712
	c-6.592-6.592-6.592-17.318,0-23.91L4.944,40.809c-6.592,6.592-6.592,17.318,0,23.91l59.776,59.776
	c1.083,1.083,2.441,1.851,3.927,2.223l47.82,11.955c2.882,0.72,5.928-0.124,8.029-2.223l11.955-11.955
	c0.008-0.008,0.015-0.019,0.024-0.027C134.374,126.547,131.342,127.383,128.473,126.666z"/>
<g>
</g>
<g>
</g>
<g>
</g>
<g>
</g>
<g>
</g>
<g>
</g>
<g>
</g>
<g>
</g>
<g>
</g>
<g>
</g>
<g>
</g>
<g>
</g>
<g>
</g>
<g>
</g>
<g>
</g>
</svg>
